<mxfile host="app.diagrams.net" agent="Mozilla/5.0 (Windows NT 10.0; Win64; x64) AppleWebKit/537.36 (KHTML, like Gecko) Chrome/141.0.0.0 Safari/537.36" version="28.2.8">
  <diagram name="Page-1" id="1DuBL_V5Yw3ONhZ47OwN">
    <mxGraphModel dx="834" dy="422" grid="1" gridSize="10" guides="1" tooltips="1" connect="1" arrows="1" fold="1" page="1" pageScale="1" pageWidth="850" pageHeight="1100" math="0" shadow="0">
      <root>
        <mxCell id="0" />
        <mxCell id="1" parent="0" />
        <mxCell id="aIYe8u-Pt6NoA9QtNw-V-17" style="edgeStyle=orthogonalEdgeStyle;rounded=0;orthogonalLoop=1;jettySize=auto;html=1;entryX=0;entryY=0.5;entryDx=0;entryDy=0;" edge="1" parent="1" source="aIYe8u-Pt6NoA9QtNw-V-1" target="aIYe8u-Pt6NoA9QtNw-V-12">
          <mxGeometry relative="1" as="geometry">
            <Array as="points">
              <mxPoint x="190" y="190" />
              <mxPoint x="190" y="90" />
            </Array>
          </mxGeometry>
        </mxCell>
        <mxCell id="aIYe8u-Pt6NoA9QtNw-V-18" style="edgeStyle=orthogonalEdgeStyle;rounded=0;orthogonalLoop=1;jettySize=auto;html=1;" edge="1" parent="1" source="aIYe8u-Pt6NoA9QtNw-V-1" target="aIYe8u-Pt6NoA9QtNw-V-14">
          <mxGeometry relative="1" as="geometry" />
        </mxCell>
        <mxCell id="aIYe8u-Pt6NoA9QtNw-V-19" style="edgeStyle=orthogonalEdgeStyle;rounded=0;orthogonalLoop=1;jettySize=auto;html=1;entryX=0;entryY=0.5;entryDx=0;entryDy=0;" edge="1" parent="1" source="aIYe8u-Pt6NoA9QtNw-V-1" target="aIYe8u-Pt6NoA9QtNw-V-16">
          <mxGeometry relative="1" as="geometry">
            <Array as="points">
              <mxPoint x="130" y="150" />
              <mxPoint x="130" y="230" />
              <mxPoint x="168" y="230" />
              <mxPoint x="168" y="310" />
            </Array>
          </mxGeometry>
        </mxCell>
        <mxCell id="aIYe8u-Pt6NoA9QtNw-V-1" value="customer" style="shape=umlActor;verticalLabelPosition=bottom;verticalAlign=top;html=1;outlineConnect=0;" vertex="1" parent="1">
          <mxGeometry x="80" y="140" width="30" height="60" as="geometry" />
        </mxCell>
        <mxCell id="aIYe8u-Pt6NoA9QtNw-V-2" value="" style="rounded=0;whiteSpace=wrap;html=1;" vertex="1" parent="1">
          <mxGeometry x="200" y="50" width="120" height="370" as="geometry" />
        </mxCell>
        <mxCell id="aIYe8u-Pt6NoA9QtNw-V-26" style="edgeStyle=orthogonalEdgeStyle;rounded=0;orthogonalLoop=1;jettySize=auto;html=1;entryX=1;entryY=0.5;entryDx=0;entryDy=0;" edge="1" parent="1" source="aIYe8u-Pt6NoA9QtNw-V-3" target="aIYe8u-Pt6NoA9QtNw-V-14">
          <mxGeometry relative="1" as="geometry" />
        </mxCell>
        <mxCell id="aIYe8u-Pt6NoA9QtNw-V-3" value="&lt;div&gt;paym-gateway&lt;/div&gt;" style="shape=umlActor;verticalLabelPosition=bottom;verticalAlign=top;html=1;outlineConnect=0;" vertex="1" parent="1">
          <mxGeometry x="395" y="260" width="30" height="60" as="geometry" />
        </mxCell>
        <mxCell id="aIYe8u-Pt6NoA9QtNw-V-21" style="edgeStyle=orthogonalEdgeStyle;rounded=0;orthogonalLoop=1;jettySize=auto;html=1;entryX=1;entryY=0.5;entryDx=0;entryDy=0;" edge="1" parent="1" source="aIYe8u-Pt6NoA9QtNw-V-8" target="aIYe8u-Pt6NoA9QtNw-V-12">
          <mxGeometry relative="1" as="geometry" />
        </mxCell>
        <mxCell id="aIYe8u-Pt6NoA9QtNw-V-22" style="edgeStyle=orthogonalEdgeStyle;rounded=0;orthogonalLoop=1;jettySize=auto;html=1;entryX=1;entryY=0.5;entryDx=0;entryDy=0;" edge="1" parent="1" source="aIYe8u-Pt6NoA9QtNw-V-8" target="aIYe8u-Pt6NoA9QtNw-V-16">
          <mxGeometry relative="1" as="geometry">
            <Array as="points">
              <mxPoint x="338" y="100" />
              <mxPoint x="338" y="310" />
            </Array>
          </mxGeometry>
        </mxCell>
        <mxCell id="aIYe8u-Pt6NoA9QtNw-V-8" value="&lt;div&gt;admin&lt;/div&gt;" style="shape=umlActor;verticalLabelPosition=bottom;verticalAlign=top;html=1;outlineConnect=0;" vertex="1" parent="1">
          <mxGeometry x="380" y="60" width="30" height="60" as="geometry" />
        </mxCell>
        <mxCell id="aIYe8u-Pt6NoA9QtNw-V-23" style="edgeStyle=orthogonalEdgeStyle;rounded=0;orthogonalLoop=1;jettySize=auto;html=1;entryX=1;entryY=0.5;entryDx=0;entryDy=0;" edge="1" parent="1" source="aIYe8u-Pt6NoA9QtNw-V-9" target="aIYe8u-Pt6NoA9QtNw-V-12">
          <mxGeometry relative="1" as="geometry">
            <Array as="points">
              <mxPoint x="363" y="190" />
              <mxPoint x="363" y="110" />
              <mxPoint x="295" y="110" />
            </Array>
          </mxGeometry>
        </mxCell>
        <mxCell id="aIYe8u-Pt6NoA9QtNw-V-25" style="edgeStyle=orthogonalEdgeStyle;rounded=0;orthogonalLoop=1;jettySize=auto;html=1;entryX=1;entryY=0.5;entryDx=0;entryDy=0;" edge="1" parent="1" source="aIYe8u-Pt6NoA9QtNw-V-9" target="aIYe8u-Pt6NoA9QtNw-V-15">
          <mxGeometry relative="1" as="geometry">
            <Array as="points">
              <mxPoint x="363" y="220" />
              <mxPoint x="363" y="230" />
            </Array>
          </mxGeometry>
        </mxCell>
        <mxCell id="aIYe8u-Pt6NoA9QtNw-V-27" style="edgeStyle=orthogonalEdgeStyle;rounded=0;orthogonalLoop=1;jettySize=auto;html=1;entryX=1;entryY=0.5;entryDx=0;entryDy=0;" edge="1" parent="1" source="aIYe8u-Pt6NoA9QtNw-V-9" target="aIYe8u-Pt6NoA9QtNw-V-14">
          <mxGeometry relative="1" as="geometry">
            <Array as="points">
              <mxPoint x="310" y="210" />
              <mxPoint x="310" y="170" />
              <mxPoint x="295" y="170" />
            </Array>
          </mxGeometry>
        </mxCell>
        <mxCell id="aIYe8u-Pt6NoA9QtNw-V-36" style="edgeStyle=orthogonalEdgeStyle;rounded=0;orthogonalLoop=1;jettySize=auto;html=1;entryX=1;entryY=0.5;entryDx=0;entryDy=0;" edge="1" parent="1" source="aIYe8u-Pt6NoA9QtNw-V-9" target="aIYe8u-Pt6NoA9QtNw-V-16">
          <mxGeometry relative="1" as="geometry">
            <Array as="points">
              <mxPoint x="445" y="250" />
              <mxPoint x="310" y="250" />
              <mxPoint x="310" y="300" />
              <mxPoint x="295" y="300" />
            </Array>
          </mxGeometry>
        </mxCell>
        <mxCell id="aIYe8u-Pt6NoA9QtNw-V-9" value="&lt;div&gt;seller&lt;/div&gt;" style="shape=umlActor;verticalLabelPosition=bottom;verticalAlign=top;html=1;outlineConnect=0;" vertex="1" parent="1">
          <mxGeometry x="430" y="160" width="30" height="60" as="geometry" />
        </mxCell>
        <mxCell id="aIYe8u-Pt6NoA9QtNw-V-12" value="cek entity" style="ellipse;whiteSpace=wrap;html=1;" vertex="1" parent="1">
          <mxGeometry x="225" y="70" width="70" height="40" as="geometry" />
        </mxCell>
        <mxCell id="aIYe8u-Pt6NoA9QtNw-V-14" value="transaksi" style="ellipse;whiteSpace=wrap;html=1;" vertex="1" parent="1">
          <mxGeometry x="225" y="140" width="70" height="40" as="geometry" />
        </mxCell>
        <mxCell id="aIYe8u-Pt6NoA9QtNw-V-15" value="status pesanan" style="ellipse;whiteSpace=wrap;html=1;" vertex="1" parent="1">
          <mxGeometry x="225" y="210" width="70" height="40" as="geometry" />
        </mxCell>
        <mxCell id="aIYe8u-Pt6NoA9QtNw-V-16" value="login" style="ellipse;whiteSpace=wrap;html=1;" vertex="1" parent="1">
          <mxGeometry x="225" y="290" width="70" height="40" as="geometry" />
        </mxCell>
        <mxCell id="aIYe8u-Pt6NoA9QtNw-V-33" value="" style="endArrow=block;dashed=1;endFill=0;endSize=12;html=1;rounded=0;entryX=0.5;entryY=0;entryDx=0;entryDy=0;exitX=0.5;exitY=1;exitDx=0;exitDy=0;" edge="1" parent="1" source="aIYe8u-Pt6NoA9QtNw-V-14" target="aIYe8u-Pt6NoA9QtNw-V-15">
          <mxGeometry width="160" relative="1" as="geometry">
            <mxPoint x="190" y="250" as="sourcePoint" />
            <mxPoint x="350" y="250" as="targetPoint" />
          </mxGeometry>
        </mxCell>
        <mxCell id="aIYe8u-Pt6NoA9QtNw-V-34" value="" style="endArrow=block;dashed=1;endFill=0;endSize=12;html=1;rounded=0;exitX=0.5;exitY=0;exitDx=0;exitDy=0;entryX=0.5;entryY=1;entryDx=0;entryDy=0;" edge="1" parent="1" source="aIYe8u-Pt6NoA9QtNw-V-14" target="aIYe8u-Pt6NoA9QtNw-V-12">
          <mxGeometry width="160" relative="1" as="geometry">
            <mxPoint x="180" y="130" as="sourcePoint" />
            <mxPoint x="340" y="130" as="targetPoint" />
          </mxGeometry>
        </mxCell>
      </root>
    </mxGraphModel>
  </diagram>
</mxfile>
